<svg version="1.1" xmlns="http://www.w3.org/2000/svg" viewBox="0 0 1216.4516340843684 609.3869082840072" width="2432.9032681687368" height="1218.7738165680144">
  <!-- svg-source:excalidraw -->
  
  <defs>
    <style class="style-fonts">
      @font-face {
        font-family: "Virgil";
        src: url("https://excalidraw.com/Virgil.woff2");
      }
      @font-face {
        font-family: "Cascadia";
        src: url("https://excalidraw.com/Cascadia.woff2");
      }
      @font-face {
        font-family: "Assistant";
        src: url("https://excalidraw.com/Assistant-Regular.woff2");
      }
    </style>
    
  </defs>
  <rect x="0" y="0" width="1216.4516340843684" height="609.3869082840072" fill="#ffffff"></rect><g stroke-linecap="round" transform="translate(654.2636325484739 10) rotate(0 57.5 24.5)"><path d="M12.25 0 C29.2 0.58, 51.81 0.03, 102.75 0 M12.25 0 C38.07 1.53, 62.45 0.24, 102.75 0 M102.75 0 C111.64 0.24, 116.53 4.81, 115 12.25 M102.75 0 C112.75 -0.92, 112.97 3.68, 115 12.25 M115 12.25 C114.05 17.7, 114.56 25.34, 115 36.75 M115 12.25 C115.74 20.01, 115.53 29.29, 115 36.75 M115 36.75 C113.37 46.27, 108.95 47.48, 102.75 49 M115 36.75 C114.97 45.13, 112.63 47.98, 102.75 49 M102.75 49 C77.45 50.76, 53.36 51, 12.25 49 M102.75 49 C68.83 49.3, 37.77 50.37, 12.25 49 M12.25 49 C5.08 48.46, -0.84 46.55, 0 36.75 M12.25 49 C3.63 49.98, -0.16 42.8, 0 36.75 M0 36.75 C0.15 25.86, 1.12 17.38, 0 12.25 M0 36.75 C0.48 28.22, -0.79 21.91, 0 12.25 M0 12.25 C0.46 5.3, 5.52 -0.22, 12.25 0 M0 12.25 C0.5 2.94, 3.48 0.08, 12.25 0" stroke="#1e1e1e" stroke-width="2" fill="none"></path></g><g transform="translate(689.6219661361204 22) rotate(0 22.141666412353516 12.5)"><text x="22.141666412353516" y="0" font-family="Virgil, Segoe UI Emoji" font-size="20px" fill="#1e1e1e" text-anchor="middle" style="white-space: pre;" direction="ltr" dominant-baseline="text-before-edge">Prod</text></g><g stroke-linecap="round" transform="translate(649.2636325484739 149) rotate(0 57.5 24.5)"><path d="M12.25 0 C40.88 -1.28, 71.12 0.73, 102.75 0 M12.25 0 C34.45 0.31, 56 -1.03, 102.75 0 M102.75 0 C110.46 -0.67, 115.8 5.9, 115 12.25 M102.75 0 C110.65 1.5, 116.1 5.13, 115 12.25 M115 12.25 C116.05 16.84, 113.24 24.38, 115 36.75 M115 12.25 C115.4 20.57, 115.36 30.47, 115 36.75 M115 36.75 C115.54 44.8, 111.29 50.51, 102.75 49 M115 36.75 C116.18 44.64, 110.21 47.53, 102.75 49 M102.75 49 C66.12 47.89, 30.37 49.36, 12.25 49 M102.75 49 C73.09 50.09, 44.75 49.59, 12.25 49 M12.25 49 C2.61 47.3, 1.18 45.17, 0 36.75 M12.25 49 C2.78 47.19, 0.75 42.78, 0 36.75 M0 36.75 C-1.17 27.13, 0.59 20.31, 0 12.25 M0 36.75 C0.48 27.99, -0.05 17.67, 0 12.25 M0 12.25 C-0.92 4.37, 5.57 1.4, 12.25 0 M0 12.25 C1.78 5.33, 4.33 -2.16, 12.25 0" stroke="#1e1e1e" stroke-width="2" fill="none"></path></g><g transform="translate(671.488631022595 161) rotate(0 35.275001525878906 12.5)"><text x="35.275001525878906" y="0" font-family="Virgil, Segoe UI Emoji" font-size="20px" fill="#1e1e1e" text-anchor="middle" style="white-space: pre;" direction="ltr" dominant-baseline="text-before-edge">Staging</text></g><g stroke-linecap="round" transform="translate(439.7244751584166 232.31850826980184) rotate(0 97.5 30)"><path d="M15 0 C58.63 1.07, 103.38 -1.35, 180 0 M15 0 C51.31 -0.44, 89.28 1.04, 180 0 M180 0 C188.07 0.1, 196.99 5.48, 195 15 M180 0 C191.65 2.2, 197.02 7.27, 195 15 M195 15 C193.75 21.48, 193.83 28.43, 195 45 M195 15 C194.12 22.57, 194.86 32.51, 195 45 M195 45 C193.45 53.59, 190.03 58.75, 180 60 M195 45 C194.81 55.86, 191.66 60.64, 180 60 M180 60 C140.14 58.11, 100.08 57.26, 15 60 M180 60 C141.9 59.89, 103.01 60.67, 15 60 M15 60 C5.3 58.05, -0.58 53.79, 0 45 M15 60 C6.37 59.17, -0.36 56.89, 0 45 M0 45 C-0.11 37.21, 0.3 27.43, 0 15 M0 45 C-0.98 38.02, -0.88 28.91, 0 15 M0 15 C-0.75 5.26, 5.69 1.08, 15 0 M0 15 C1.96 7.23, 3.96 -1.28, 15 0" stroke="#1e1e1e" stroke-width="2" fill="none"></path></g><g transform="translate(464.8244736325377 249.81850826980184) rotate(0 72.4000015258789 12.5)"><text x="72.4000015258789" y="0" font-family="Virgil, Segoe UI Emoji" font-size="20px" fill="#1e1e1e" text-anchor="middle" style="white-space: pre;" direction="ltr" dominant-baseline="text-before-edge">Staging/reg/1.0</text></g><g stroke-linecap="round" transform="translate(775.2636325484739 231) rotate(0 107.5 30)"><path d="M15 0 C73.07 0.01, 136.63 1.15, 200 0 M15 0 C65.24 1.39, 114.45 -0.3, 200 0 M200 0 C211.43 -0.45, 213.7 4.2, 215 15 M200 0 C211.82 1.47, 212.98 6.25, 215 15 M215 15 C213.65 26.27, 215.1 38.09, 215 45 M215 15 C215.29 20.85, 214.22 27.35, 215 45 M215 45 C216.05 54.64, 209.06 61.82, 200 60 M215 45 C216.12 56.3, 207.91 57.99, 200 60 M200 60 C150.05 59.46, 99.34 61.92, 15 60 M200 60 C152.94 59.58, 107.47 61.11, 15 60 M15 60 C3.64 58.83, -0.21 53.31, 0 45 M15 60 C4.86 59.69, 2.02 56.09, 0 45 M0 45 C-1.6 39.2, -0.29 31.44, 0 15 M0 45 C0.26 38.61, 0.73 30.86, 0 15 M0 15 C-1.35 4.55, 4.25 0.79, 15 0 M0 15 C1.51 5.22, 4.34 0.55, 15 0" stroke="#1e1e1e" stroke-width="2" fill="none"></path></g><g transform="translate(786.7469623214231 248.5) rotate(0 96.01667022705078 12.5)"><text x="96.01667022705078" y="0" font-family="Virgil, Segoe UI Emoji" font-size="20px" fill="#1e1e1e" text-anchor="middle" style="white-space: pre;" direction="ltr" dominant-baseline="text-before-edge">Staging/payment/1.0</text></g><g stroke-linecap="round"><g transform="translate(591.9746238240123 231.31850826980184) rotate(0 28.666735491281543 -26.11208432358015)"><path d="M-1.1 -0.74 C0.01 -8.93, -3.7 -39.92, 6.02 -48.37 C15.75 -56.82, 48.83 -50.92, 57.24 -51.44" stroke="#1e1e1e" stroke-width="4.5" fill="none" stroke-dasharray="8 12"></path></g><g transform="translate(591.9746238240123 231.31850826980184) rotate(0 28.666735491281543 -26.11208432358015)"><path d="M33.32 -44.18 C37.98 -44.61, 43.4 -47.72, 57.24 -51.44" stroke="#1e1e1e" stroke-width="4.5" fill="none"></path></g><g transform="translate(591.9746238240123 231.31850826980184) rotate(0 28.666735491281543 -26.11208432358015)"><path d="M34.25 -61.25 C38.78 -57.46, 43.97 -56.33, 57.24 -51.44" stroke="#1e1e1e" stroke-width="4.5" fill="none"></path></g></g><mask></mask><g stroke-linecap="round"><g transform="translate(833.3779385198354 230) rotate(0 -34.05715298568077 -25.46733580848837)"><path d="M-0.6 -0.96 C-1.95 -9.15, 2.52 -39.56, -8.84 -48.07 C-20.2 -56.58, -58.89 -51.49, -68.75 -52.02" stroke="#1e1e1e" stroke-width="4.5" fill="none" stroke-dasharray="8 12"></path></g><g transform="translate(833.3779385198354 230) rotate(0 -34.05715298568077 -25.46733580848837)"><path d="M-45.56 -61.37 C-52.56 -60.48, -58.25 -58.11, -68.75 -52.02" stroke="#1e1e1e" stroke-width="4.5" fill="none"></path></g><g transform="translate(833.3779385198354 230) rotate(0 -34.05715298568077 -25.46733580848837)"><path d="M-44.98 -44.28 C-52.27 -47.44, -58.1 -49.12, -68.75 -52.02" stroke="#1e1e1e" stroke-width="4.5" fill="none"></path></g></g><mask></mask><g stroke-linecap="round"><g transform="translate(545.1550689289757 228.25801102640247) rotate(0 53.28915749889927 -96.88598409197746)"><path d="M0.52 -0.59 C1.55 -29.82, -10.67 -143.52, 6.85 -175.68 C24.36 -207.84, 88.97 -190.63, 105.6 -193.56" stroke="#1e1e1e" stroke-width="4.5" fill="none" stroke-dasharray="8 12"></path></g><g transform="translate(545.1550689289757 228.25801102640247) rotate(0 53.28915749889927 -96.88598409197746)"><path d="M81.81 -185.87 C89.28 -187.63, 100.64 -193.05, 105.6 -193.56" stroke="#1e1e1e" stroke-width="4.5" fill="none"></path></g><g transform="translate(545.1550689289757 228.25801102640247) rotate(0 53.28915749889927 -96.88598409197746)"><path d="M82.44 -202.96 C89.65 -198.66, 100.78 -198.02, 105.6 -193.56" stroke="#1e1e1e" stroke-width="4.5" fill="none"></path></g></g><mask></mask><g stroke-linecap="round"><g transform="translate(877.4346340686759 230) rotate(0 -53.085500760100956 -99.00814328210213)"><path d="M-0.49 -0.21 C-2.14 -31.21, 6.92 -152.81, -10.58 -185.85 C-28.09 -218.89, -89.57 -196.5, -105.51 -198.45" stroke="#1e1e1e" stroke-width="4.5" fill="none" stroke-dasharray="8 12"></path></g><g transform="translate(877.4346340686759 230) rotate(0 -53.085500760100956 -99.00814328210213)"><path d="M-83.09 -209.52 C-88.78 -207.65, -95.22 -203.21, -105.51 -198.45" stroke="#1e1e1e" stroke-width="4.5" fill="none"></path></g><g transform="translate(877.4346340686759 230) rotate(0 -53.085500760100956 -99.00814328210213)"><path d="M-81.22 -192.52 C-87.39 -194.73, -94.27 -194.35, -105.51 -198.45" stroke="#1e1e1e" stroke-width="4.5" fill="none"></path></g></g><mask></mask><g stroke-linecap="round" transform="translate(438.2244751584166 357.2946844880051) rotate(0 98 28.49999999999997)"><path d="M14.25 0 C56.82 -1.85, 102.17 -0.24, 181.75 0 M181.75 0 C190.23 1.02, 196.68 3.39, 196 14.25 M196 14.25 C196.4 25.68, 194.83 35.6, 196 42.75 M196 42.75 C194.7 54.25, 192.19 57.84, 181.75 57 M181.75 57 C123.23 55.47, 66.14 57.25, 14.25 57 M14.25 57 C5.68 56.68, 0.71 52.42, 0 42.75 M0 42.75 C0.89 35.11, -1.84 26.86, 0 14.25 M0 14.25 C-0.9 4.81, 4.54 1.35, 14.25 0" stroke="#1e1e1e" stroke-width="4.5" fill="none" stroke-dasharray="8 12"></path></g><g transform="translate(482.7244751584166 373.2946844880051) rotate(0 53.5 12.499999999999972)"><text x="53.5" y="0" font-family="Virgil, Segoe UI Emoji" font-size="20px" fill="#1e1e1e" text-anchor="middle" style="white-space: pre;" direction="ltr" dominant-baseline="text-before-edge">dev/reg/1.0</text></g><g stroke-linecap="round" transform="translate(221.02784319636743 328.7593643614244) rotate(0 98 28.49999999999997)"><path d="M14.25 0 C67.95 -0.75, 124.2 1.4, 181.75 0 M14.25 0 C74.62 -1.9, 133.35 -0.57, 181.75 0 M181.75 0 C193.05 1.67, 197.62 6.2, 196 14.25 M181.75 0 C189.42 -1.37, 195.66 6.52, 196 14.25 M196 14.25 C195.32 22.97, 194.02 30.88, 196 42.75 M196 14.25 C195.5 22.86, 196.78 33.31, 196 42.75 M196 42.75 C195.11 51.54, 191.87 58.35, 181.75 57 M196 42.75 C193.9 53.11, 190.82 58.66, 181.75 57 M181.75 57 C144.16 55.9, 107.61 57.9, 14.25 57 M181.75 57 C117.27 57.31, 53.86 57.66, 14.25 57 M14.25 57 C5.16 55.05, 1.05 50.72, 0 42.75 M14.25 57 C6 55.36, 0.06 53.45, 0 42.75 M0 42.75 C-0.06 31.61, 0.17 24.42, 0 14.25 M0 42.75 C-0.75 31.19, 0.2 20.27, 0 14.25 M0 14.25 C1.23 4.79, 3.77 -0.73, 14.25 0 M0 14.25 C1.1 4.68, 6.6 -2.19, 14.25 0" stroke="#1e1e1e" stroke-width="2" fill="none"></path></g><g transform="translate(261.1278416704885 344.7593643614244) rotate(0 57.900001525878906 12.5)"><text x="57.900001525878906" y="0" font-family="Virgil, Segoe UI Emoji" font-size="20px" fill="#1e1e1e" text-anchor="middle" style="white-space: pre;" direction="ltr" dominant-baseline="text-before-edge">dev/reg/2.0</text></g><g stroke-linecap="round"><g transform="translate(534.0122738263947 356.29468448800503) rotate(0 -0.7955033097102842 -31.488088109101597)"><path d="M-1.01 0.3 C-1.57 -10.43, -2.23 -53.02, -2.25 -63.44" stroke="#1e1e1e" stroke-width="4.5" fill="none" stroke-dasharray="8 12"></path></g><g transform="translate(534.0122738263947 356.29468448800503) rotate(0 -0.7955033097102842 -31.488088109101597)"><path d="M6.55 -40.04 C3.4 -50.44, -1.35 -57.8, -2.25 -63.44" stroke="#1e1e1e" stroke-width="4.5" fill="none"></path></g><g transform="translate(534.0122738263947 356.29468448800503) rotate(0 -0.7955033097102842 -31.488088109101597)"><path d="M-10.55 -39.86 C-6.96 -50.19, -4.96 -57.62, -2.25 -63.44" stroke="#1e1e1e" stroke-width="4.5" fill="none"></path></g></g><mask></mask><g stroke-linecap="round" transform="translate(790.2636325484737 348.84478290393037) rotate(0 97 28.49999999999997)"><path d="M14.25 0 C54.25 -0.85, 92.92 -1.58, 179.75 0 M179.75 0 C190.29 0.45, 192.75 4, 194 14.25 M194 14.25 C193.42 26.04, 192.87 38.16, 194 42.75 M194 42.75 C194.32 52.52, 188.76 58.25, 179.75 57 M179.75 57 C116.49 56.82, 54.97 54.31, 14.25 57 M14.25 57 C4.62 55.75, 1.48 53.01, 0 42.75 M0 42.75 C-1.29 34.38, -1.04 25.68, 0 14.25 M0 14.25 C1.43 3.42, 3.69 -1.22, 14.25 0" stroke="#1e1e1e" stroke-width="4.5" fill="none" stroke-dasharray="8 12"></path></g><g transform="translate(810.1303012496455 364.8447829039303) rotate(0 77.13333129882812 12.5)"><text x="77.13333129882812" y="0" font-family="Virgil, Segoe UI Emoji" font-size="20px" fill="#1e1e1e" text-anchor="middle" style="white-space: pre;" direction="ltr" dominant-baseline="text-before-edge">dev/payment/1.0</text></g><g stroke-linecap="round"><g transform="translate(888.870139447803 343.8447829039303) rotate(0 -0.3755366584692865 -25.922391451965098)"><path d="M-0.13 -0.78 C0.02 -9.33, -0.07 -43.25, -0.19 -51.85" stroke="#1e1e1e" stroke-width="4.5" fill="none" stroke-dasharray="8 12"></path></g><g transform="translate(888.870139447803 343.8447829039303) rotate(0 -0.3755366584692865 -25.922391451965098)"><path d="M8.53 -28.42 C5.52 -32.38, 4.98 -38.36, -0.19 -51.85" stroke="#1e1e1e" stroke-width="4.5" fill="none"></path></g><g transform="translate(888.870139447803 343.8447829039303) rotate(0 -0.3755366584692865 -25.922391451965098)"><path d="M-8.57 -28.3 C-8.02 -32.26, -4.99 -38.27, -0.19 -51.85" stroke="#1e1e1e" stroke-width="4.5" fill="none"></path></g></g><mask></mask><g transform="translate(602.9778444347787 146.4864341085272) rotate(0 2.7166666984558105 12.5)"><text x="0" y="0" font-family="Virgil, Segoe UI Emoji" font-size="20px" fill="#1e1e1e" text-anchor="start" style="white-space: pre;" direction="ltr" dominant-baseline="text-before-edge">1</text></g><g transform="translate(815.1318496027375 146.96085271317833) rotate(0 2.7166666984558105 12.5)"><text x="0" y="0" font-family="Virgil, Segoe UI Emoji" font-size="20px" fill="#1e1e1e" text-anchor="start" style="white-space: pre;" direction="ltr" dominant-baseline="text-before-edge">1</text></g><g transform="translate(565.3625541228873 47.02489977320249) rotate(0 7.116666793823242 12.5)"><text x="0" y="0" font-family="Virgil, Segoe UI Emoji" font-size="20px" fill="#1e1e1e" text-anchor="start" style="white-space: pre;" direction="ltr" dominant-baseline="text-before-edge">2</text></g><g transform="translate(878.6357255717296 31.595478036175734) rotate(0 7.116666793823242 12.5)"><text x="0" y="0" font-family="Virgil, Segoe UI Emoji" font-size="20px" fill="#1e1e1e" text-anchor="start" style="white-space: pre;" direction="ltr" dominant-baseline="text-before-edge">2</text></g><g stroke-linecap="round"><g transform="translate(375.6196696144214 67.14955904703467) rotate(0 40.67407589879298 0.5730737533161658)"><path d="M-0.36 0.38 C13.24 0.44, 67.31 -0.08, 80.89 0.12 M1.65 -0.47 C15.12 -0.27, 66.6 1.14, 79.7 1.12" stroke="#1e1e1e" stroke-width="4" fill="none"></path></g><g transform="translate(375.6196696144214 67.14955904703467) rotate(0 40.67407589879298 0.5730737533161658)"><path d="M56.09 9.32 C62.42 6.65, 65.76 5.11, 79.7 1.12 M56.09 9.32 C63.98 6.76, 72.82 4.37, 79.7 1.12" stroke="#1e1e1e" stroke-width="4" fill="none"></path></g><g transform="translate(375.6196696144214 67.14955904703467) rotate(0 40.67407589879298 0.5730737533161658)"><path d="M56.34 -7.78 C62.57 -6.33, 65.86 -3.75, 79.7 1.12 M56.34 -7.78 C64.08 -4.64, 72.83 -1.32, 79.7 1.12" stroke="#1e1e1e" stroke-width="4" fill="none"></path></g></g><mask></mask><g transform="translate(374.4452009344747 30.47283883479784) rotate(0 21.188899314655032 13.536349031577728)"><text x="0" y="0" font-family="Virgil, Segoe UI Emoji" font-size="21.65815845052437px" fill="#1e1e1e" text-anchor="start" style="white-space: pre;" direction="ltr" dominant-baseline="text-before-edge">fork</text></g><g transform="translate(367.5417894756567 88.0098441370881) rotate(0 31.562214627598507 14.841166397839075)"><text x="0" y="0" font-family="Virgil, Segoe UI Emoji" font-size="23.7458662365425px" fill="#1e1e1e" text-anchor="start" style="white-space: pre;" direction="ltr" dominant-baseline="text-before-edge">merge</text></g><g stroke-linecap="round"><g transform="translate(369.35331014540503 127.95981669327989) rotate(0 45.936182155148856 -0.15056270609454714)"><path d="M-0.55 -1.05 C15.01 -0.97, 76.6 -0.65, 92.2 -0.52" stroke="#1e1e1e" stroke-width="4.5" fill="none" stroke-dasharray="8 12"></path></g><g transform="translate(369.35331014540503 127.95981669327989) rotate(0 45.936182155148856 -0.15056270609454714)"><path d="M68.65 7.87 C71.75 6.82, 77.9 6.54, 92.2 -0.52" stroke="#1e1e1e" stroke-width="4.5" fill="none"></path></g><g transform="translate(369.35331014540503 127.95981669327989) rotate(0 45.936182155148856 -0.15056270609454714)"><path d="M68.76 -9.23 C71.7 -6.81, 77.83 -3.62, 92.2 -0.52" stroke="#1e1e1e" stroke-width="4.5" fill="none"></path></g></g><mask></mask><g stroke-linecap="round"><g transform="translate(433.63417518413274 263.9686046511628) rotate(0 -64.4335438455141 31.31246991646441)"><path d="M-0.58 0.41 C-20.44 1.5, -97.8 -4.73, -119.04 5.63 C-140.28 15.99, -126.25 52.87, -128 62.55 M1.32 -0.43 C-18.67 0.89, -98.09 -3.93, -119.7 6.78 C-141.31 17.49, -126.65 54.67, -128.32 63.82" stroke="#1e1e1e" stroke-width="4" fill="none"></path></g><g transform="translate(433.63417518413274 263.9686046511628) rotate(0 -64.4335438455141 31.31246991646441)"><path d="M-139.25 41.34 C-135.33 49.33, -133.83 56.87, -128.32 63.82 M-139.25 41.34 C-136 48.12, -132.62 53.52, -128.32 63.82" stroke="#1e1e1e" stroke-width="4" fill="none"></path></g><g transform="translate(433.63417518413274 263.9686046511628) rotate(0 -64.4335438455141 31.31246991646441)"><path d="M-122.24 39.57 C-123.65 48.04, -127.46 56.13, -128.32 63.82 M-122.24 39.57 C-123.99 47.03, -125.6 52.94, -128.32 63.82" stroke="#1e1e1e" stroke-width="4" fill="none"></path></g></g><mask></mask><g stroke-linecap="round" transform="translate(1010.4516340843684 320.8010166451994) rotate(0 98 28.5)"><path d="M14.25 0 C52.45 -0.22, 88.22 -0.15, 181.75 0 M14.25 0 C80.66 0.15, 144.68 0.05, 181.75 0 M181.75 0 C189.54 -1.75, 197.27 3.34, 196 14.25 M181.75 0 C192.3 2.21, 196.01 6.31, 196 14.25 M196 14.25 C196.42 25.22, 197.11 32.98, 196 42.75 M196 14.25 C196.95 21.9, 195.73 27.66, 196 42.75 M196 42.75 C196.9 53.54, 191.72 55.11, 181.75 57 M196 42.75 C196.82 53.38, 190.47 55.3, 181.75 57 M181.75 57 C135.27 55.19, 91.91 56.57, 14.25 57 M181.75 57 C132.42 56.57, 84.35 56.97, 14.25 57 M14.25 57 C3.78 55.56, -0.89 53.81, 0 42.75 M14.25 57 C5.89 58.53, 0.8 52.95, 0 42.75 M0 42.75 C-1.12 30.11, 0.96 20.85, 0 14.25 M0 42.75 C0.4 34.08, -0.31 26.79, 0 14.25 M0 14.25 C-0.48 4.27, 2.98 -0.89, 14.25 0 M0 14.25 C-2.13 3.29, 5.88 2.17, 14.25 0" stroke="#1e1e1e" stroke-width="2" fill="none"></path></g><g transform="translate(1026.9349638573176 336.8010166451994) rotate(0 81.51667022705078 12.5)"><text x="81.51667022705078" y="0" font-family="Virgil, Segoe UI Emoji" font-size="20px" fill="#1e1e1e" text-anchor="middle" style="white-space: pre;" direction="ltr" dominant-baseline="text-before-edge">dev/payment/2.0</text></g><g stroke-linecap="round"><g transform="translate(991.95723990479 261.7184967958019) rotate(0 59.65120402750313 29.04125992469875)"><path d="M0.06 -0.65 C17.56 0.43, 85.73 -4.34, 105.66 5.48 C125.59 15.31, 117.42 49.59, 119.65 58.31 M-1.36 1.62 C16.02 2.92, 85.2 -3.18, 105.27 6.5 C125.34 16.19, 116.75 51.04, 119.07 59.75" stroke="#1e1e1e" stroke-width="4" fill="none"></path></g><g transform="translate(991.95723990479 261.7184967958019) rotate(0 59.65120402750313 29.04125992469875)"><path d="M110.16 36.39 C112.03 46.45, 114.64 53.57, 119.07 59.75 M110.16 36.39 C113.32 44.21, 115.46 50.75, 119.07 59.75" stroke="#1e1e1e" stroke-width="4" fill="none"></path></g><g transform="translate(991.95723990479 261.7184967958019) rotate(0 59.65120402750313 29.04125992469875)"><path d="M127.25 36.12 C123.05 46.29, 119.59 53.5, 119.07 59.75 M127.25 36.12 C124.97 43.99, 121.65 50.62, 119.07 59.75" stroke="#1e1e1e" stroke-width="4" fill="none"></path></g></g><mask></mask><g stroke-linecap="round" transform="translate(10 421.6254252508585) rotate(0 108.37298231180583 33.96765117235708)"><path d="M16.98 0 C77.29 0.03, 136.53 1.23, 199.76 0 M199.76 0 C211.29 0.21, 218.39 5.47, 216.75 16.98 M216.75 16.98 C215.58 29.74, 215.65 39.96, 216.75 50.95 M216.75 50.95 C217.5 60.62, 212.52 68.99, 199.76 67.94 M199.76 67.94 C137.28 65.93, 76.76 65.2, 16.98 67.94 M16.98 67.94 C3.8 69.11, -0.08 60.51, 0 50.95 M0 50.95 C-0.88 39.53, 0.81 31.32, 0 16.98 M0 16.98 C1.14 4.91, 6.72 -0.46, 16.98 0" stroke="#1e1e1e" stroke-width="4.5" fill="none" stroke-dasharray="8 12"></path></g><g transform="translate(35.30631666239174 443.0930764232155) rotate(0 83.06666564941406 12.5)"><text x="83.06666564941406" y="0" font-family="Virgil, Segoe UI Emoji" font-size="20px" fill="#1e1e1e" text-anchor="middle" style="white-space: pre;" direction="ltr" dominant-baseline="text-before-edge">dev/reg/2.0-Luigi</text></g><g stroke-linecap="round"><g transform="translate(214.2449503181113 358.0381777439836) rotate(0 -34.69703394752503 28.583684005378927)"><path d="M-0.29 -0.97 C-10.43 0.26, -49.61 -3.06, -61.07 6.44 C-72.52 15.94, -67.7 47.45, -69.04 56.05 M1.75 1.13 C-7.99 2.55, -46.91 -1.91, -58.81 7.37 C-70.7 16.64, -67.97 48.69, -69.62 56.78" stroke="#1e1e1e" stroke-width="4" fill="none"></path></g><g transform="translate(214.2449503181113 358.0381777439836) rotate(0 -34.69703394752503 28.583684005378927)"><path d="M-76.63 32.78 C-76.47 38.11, -74.82 46.88, -69.62 56.78 M-76.63 32.78 C-75.66 37.91, -73.6 43.26, -69.62 56.78" stroke="#1e1e1e" stroke-width="4" fill="none"></path></g><g transform="translate(214.2449503181113 358.0381777439836) rotate(0 -34.69703394752503 28.583684005378927)"><path d="M-59.56 33.89 C-64.19 38.87, -67.33 47.32, -69.62 56.78 M-59.56 33.89 C-62.13 38.91, -63.59 44.03, -69.62 56.78" stroke="#1e1e1e" stroke-width="4" fill="none"></path></g></g><mask></mask><g stroke-linecap="round" transform="translate(269.87927227554513 479.53111704845765) rotate(0 108.3729823118058 33.96765117235702)"><path d="M16.98 0 C70.17 2.76, 118.84 1.44, 199.76 0 M199.76 0 C210.07 -0.76, 215.13 7.12, 216.75 16.98 M216.75 16.98 C215.13 26.11, 216.1 30.55, 216.75 50.95 M216.75 50.95 C215.9 62.69, 211.48 68.49, 199.76 67.94 M199.76 67.94 C145.29 70.97, 91.86 70.68, 16.98 67.94 M16.98 67.94 C4.57 69.08, -1.3 60.52, 0 50.95 M0 50.95 C-0.41 38.79, 1.12 23.85, 0 16.98 M0 16.98 C-1.83 6.17, 5.89 -0.76, 16.98 0" stroke="#1e1e1e" stroke-width="4.5" fill="none" stroke-dasharray="8 12"></path></g><g transform="translate(289.2689248144017 500.99876822081467) rotate(0 88.98332977294922 12.5)"><text x="88.98332977294922" y="0" font-family="Virgil, Segoe UI Emoji" font-size="20px" fill="#1e1e1e" text-anchor="middle" style="white-space: pre;" direction="ltr" dominant-baseline="text-before-edge">dev/reg/2.0-Guido</text></g><g stroke-linecap="round"><g transform="translate(364.1292041819774 387.23868397728256) rotate(0 0.9958641590973798 44.25912480378997)"><path d="M0.42 0.8 C0.8 7.88, 2.32 27.55, 2.26 42.17 C2.2 56.78, 0.39 80.75, 0.06 88.5 M-0.82 0.17 C-0.57 6.92, 1.44 25.32, 1.45 40.26 C1.46 55.19, -0.63 81.54, -0.76 89.81" stroke="#1e1e1e" stroke-width="4" fill="none"></path></g><g transform="translate(364.1292041819774 387.23868397728256) rotate(0 0.9958641590973798 44.25912480378997)"><path d="M-7.73 67.47 C-4.39 74.56, -2.97 80.59, -0.76 89.81 M-7.73 67.47 C-6.52 74.5, -3.56 79.98, -0.76 89.81" stroke="#1e1e1e" stroke-width="4" fill="none"></path></g><g transform="translate(364.1292041819774 387.23868397728256) rotate(0 0.9958641590973798 44.25912480378997)"><path d="M8.26 68.22 C6.83 75.14, 3.47 80.95, -0.76 89.81 M8.26 68.22 C4.7 75.05, 2.89 80.3, -0.76 89.81" stroke="#1e1e1e" stroke-width="4" fill="none"></path></g></g><mask></mask><g stroke-linecap="round"><g transform="translate(230.32551395367813 462.41973761110955) rotate(0 11.260060834457732 -36.42025554570154)"><path d="M0.72 -0.61 C4.58 -1.61, 19.58 6.41, 22.5 -5.47 C25.43 -17.36, 19.03 -60.77, 18.28 -71.92" stroke="#1e1e1e" stroke-width="4.5" fill="none" stroke-dasharray="8 12"></path></g><g transform="translate(230.32551395367813 462.41973761110955) rotate(0 11.260060834457732 -36.42025554570154)"><path d="M29.25 -49.45 C25.47 -54.89, 24.16 -58.53, 18.28 -71.92" stroke="#1e1e1e" stroke-width="4.5" fill="none"></path></g><g transform="translate(230.32551395367813 462.41973761110955) rotate(0 11.260060834457732 -36.42025554570154)"><path d="M12.24 -47.66 C12.59 -53.63, 15.43 -57.72, 18.28 -71.92" stroke="#1e1e1e" stroke-width="4.5" fill="none"></path></g></g><mask></mask><g stroke-linecap="round"><g transform="translate(307.54754009653556 474.2449671114067) rotate(0 0.5504166951819798 -42.36043912543772)"><path d="M0.32 0.14 C0.49 -13.91, 1.1 -69.56, 1.1 -83.75" stroke="#1e1e1e" stroke-width="4.5" fill="none" stroke-dasharray="8 12"></path></g><g transform="translate(307.54754009653556 474.2449671114067) rotate(0 0.5504166951819798 -42.36043912543772)"><path d="M9.5 -60.2 C7.03 -67.47, 5.82 -76.08, 1.1 -83.75" stroke="#1e1e1e" stroke-width="4.5" fill="none"></path></g><g transform="translate(307.54754009653556 474.2449671114067) rotate(0 0.5504166951819798 -42.36043912543772)"><path d="M-7.6 -60.31 C-4.78 -67.59, -0.7 -76.16, 1.1 -83.75" stroke="#1e1e1e" stroke-width="4.5" fill="none"></path></g></g><mask></mask><g stroke-linecap="round" transform="translate(173.00436825117032 25.785485773229937) rotate(0 83.7144982888143 30.0349726685059)"><path d="M15.02 0 C63.42 -0.43, 107.61 -2.62, 152.41 0 M152.41 0 C161.72 0.29, 168.49 3.51, 167.43 15.02 M167.43 15.02 C167.91 23.06, 168.42 31.59, 167.43 45.05 M167.43 45.05 C166.46 53.48, 163.4 59.9, 152.41 60.07 M152.41 60.07 C125.77 60.14, 97.26 60.9, 15.02 60.07 M15.02 60.07 C5.24 59.01, 0.8 53.33, 0 45.05 M0 45.05 C0.33 36.06, 0.68 28.54, 0 15.02 M0 15.02 C1.48 5.48, 5.61 0.58, 15.02 0" stroke="#1e1e1e" stroke-width="4.5" fill="none" stroke-dasharray="8 12"></path></g><g transform="translate(187.28553218939868 30.820458441735838) rotate(0 69.43333435058594 25)"><text x="69.43333435058594" y="0" font-family="Virgil, Segoe UI Emoji" font-size="20px" fill="#1e1e1e" text-anchor="middle" style="white-space: pre;" direction="ltr" dominant-baseline="text-before-edge">Delete after </text><text x="69.43333435058594" y="25" font-family="Virgil, Segoe UI Emoji" font-size="20px" fill="#1e1e1e" text-anchor="middle" style="white-space: pre;" direction="ltr" dominant-baseline="text-before-edge">merged</text></g><g stroke-linecap="round" transform="translate(653.0949406553673 489.0030652681379) rotate(0 57.5 24.5)"><path d="M12.25 0 C33.15 -0.68, 49.9 0.33, 102.75 0 M12.25 0 C31.38 0.63, 51.89 -0.42, 102.75 0 M102.75 0 C110.28 1.21, 115.89 3.15, 115 12.25 M102.75 0 C111.64 -0.77, 113.18 4.31, 115 12.25 M115 12.25 C113.28 18.04, 115.39 23.64, 115 36.75 M115 12.25 C113.95 22.33, 115.45 30.96, 115 36.75 M115 36.75 C114.07 43.33, 111.4 48.36, 102.75 49 M115 36.75 C113.93 46.47, 111.98 50.02, 102.75 49 M102.75 49 C72.99 47.8, 47.11 49.02, 12.25 49 M102.75 49 C79.93 49.12, 56.56 50.4, 12.25 49 M12.25 49 C3.46 49.84, 0.66 44.41, 0 36.75 M12.25 49 C4.08 49.11, 0.45 45.88, 0 36.75 M0 36.75 C-1.85 28.06, 1.21 20.81, 0 12.25 M0 36.75 C-0.59 26.19, 0.02 18.24, 0 12.25 M0 12.25 C-1.19 3.13, 5.52 0.62, 12.25 0 M0 12.25 C2.07 4.59, 2.23 2.04, 12.25 0" stroke="#1e1e1e" stroke-width="2" fill="none"></path></g><g transform="translate(692.0949406553673 501.0030652681379) rotate(0 18.5 12.5)"><text x="18.5" y="0" font-family="Virgil, Segoe UI Emoji" font-size="20px" fill="#1e1e1e" text-anchor="middle" style="white-space: pre;" direction="ltr" dominant-baseline="text-before-edge">Dev</text></g><g stroke-linecap="round"><g transform="translate(679.7196451360458 485.5611437602032) rotate(0 -31.713318231644166 -34.70173944497418)"><path d="M-0.9 0.61 C-11.42 -11.14, -52.25 -57.82, -62.55 -69.4 M0.83 -0.11 C-9.83 -11.14, -52.39 -56.05, -63.04 -67.86" stroke="#1e1e1e" stroke-width="4" fill="none"></path></g><g transform="translate(679.7196451360458 485.5611437602032) rotate(0 -31.713318231644166 -34.70173944497418)"><path d="M-40.79 -56.46 C-47.65 -59.15, -56.45 -63.35, -63.04 -67.86 M-40.79 -56.46 C-49.42 -59.59, -55.11 -65.28, -63.04 -67.86" stroke="#1e1e1e" stroke-width="4" fill="none"></path></g><g transform="translate(679.7196451360458 485.5611437602032) rotate(0 -31.713318231644166 -34.70173944497418)"><path d="M-53.33 -44.83 C-55.91 -51.49, -60.33 -59.75, -63.04 -67.86 M-53.33 -44.83 C-57.71 -51.92, -59.12 -61.58, -63.04 -67.86" stroke="#1e1e1e" stroke-width="4" fill="none"></path></g></g><mask></mask><g stroke-linecap="round"><g transform="translate(739.6671075112149 483.01798589092436) rotate(0 22.28861403021091 -37.37846883186876)"><path d="M1.05 -0.66 C8.47 -13.09, 37.84 -62.33, 45.04 -74.63 M0.14 1.61 C7.41 -10.61, 37.14 -60.6, 44.34 -73.03" stroke="#1e1e1e" stroke-width="4" fill="none"></path></g><g transform="translate(739.6671075112149 483.01798589092436) rotate(0 22.28861403021091 -37.37846883186876)"><path d="M39.8 -48.44 C40.25 -56.11, 43.11 -65.83, 44.34 -73.03 M39.8 -48.44 C40.94 -55.71, 43.03 -64.82, 44.34 -73.03" stroke="#1e1e1e" stroke-width="4" fill="none"></path></g><g transform="translate(739.6671075112149 483.01798589092436) rotate(0 22.28861403021091 -37.37846883186876)"><path d="M25.06 -57.11 C30.55 -61.94, 38.44 -68.7, 44.34 -73.03 M25.06 -57.11 C31.07 -61.56, 37.97 -67.84, 44.34 -73.03" stroke="#1e1e1e" stroke-width="4" fill="none"></path></g></g><mask></mask><g transform="translate(636.8220885863818 564.3869082840072) rotate(0 75.73332977294922 17.5)"><text x="0" y="0" font-family="Virgil, Segoe UI Emoji" font-size="28px" fill="#f08c00" text-anchor="start" style="white-space: pre;" direction="ltr" dominant-baseline="text-before-edge">Start Here</text></g></svg>